<svg width="23" height="22" viewBox="0 0 23 22" fill="none" xmlns="http://www.w3.org/2000/svg">
<path d="M21.6938 4.54688L12.475 1.46094C12.0844 1.34375 11.6938 1.30469 11.3031 1.30469C10.8734 1.30469 10.4828 1.34375 10.0922 1.46094L0.873438 4.54688C0.404688 4.70312 0.0531254 5.17188 0.0531254 5.71875V7.63281L10.4047 4.54688C10.9906 4.35156 11.5766 4.35156 12.2016 4.54688L22.5531 7.63281V5.71875C22.5531 5.21094 22.2016 4.70312 21.6938 4.54688ZM10.7563 5.75781L0.0531254 8.96094V17.8672C0.0531254 18.4531 0.44375 18.9609 1.02969 19.0781L10.4828 21.1875C10.7172 21.2656 10.9906 21.3047 11.3031 21.3047C11.5766 21.3047 11.85 21.2656 12.0844 21.1875L21.5375 19.0781C22.1234 18.9609 22.5531 18.4531 22.5531 17.8672V8.96094L11.8109 5.75781C11.4594 5.64062 11.1078 5.64062 10.7563 5.75781ZM5.05313 10.2891C5.05313 10.4062 4.93594 10.5234 4.81875 10.5625L1.69375 11.4219C1.49844 11.5 1.30313 11.3438 1.30313 11.1094V10.4844C1.30313 10.3281 1.38125 10.2109 1.49844 10.1719L4.62344 9.3125C4.81875 9.27344 5.05313 9.42969 5.05313 9.625V10.2891ZM10.6781 8.72656C10.6781 8.88281 10.5609 9 10.4438 9.03906L6.69375 10.0547C6.49844 10.1328 6.30313 9.97656 6.30313 9.78125V9.11719C6.30313 8.96094 6.38125 8.84375 6.49844 8.80469L10.2484 7.78906C10.4438 7.75 10.6781 7.86719 10.6781 8.10156V8.72656ZM17.5531 9.625C17.5531 9.42969 17.7484 9.27344 17.9438 9.3125L21.0688 10.1719C21.1859 10.2109 21.3031 10.3281 21.3031 10.4844V11.1094C21.3031 11.3438 21.0688 11.5 20.8734 11.4219L17.7484 10.5625C17.6313 10.5234 17.5531 10.4062 17.5531 10.2891V9.625ZM11.9281 8.10156C11.9281 7.86719 12.1234 7.75 12.3188 7.78906L16.0688 8.80469C16.1859 8.84375 16.3031 8.96094 16.3031 9.11719V9.78125C16.3031 9.97656 16.0688 10.1328 15.8734 10.0547L12.1234 9.03906C12.0063 9 11.9281 8.88281 11.9281 8.72656V8.10156Z" fill="#0D6CAC"/>
</svg>
