<svg width="238" height="22" viewBox="0 0 238 22" fill="none" xmlns="http://www.w3.org/2000/svg">
<mask id="path-1-inside-1_1_23" fill="white">
<path d="M0.46875 9.76562H99.2031V11.7656H0.46875V9.76562Z"/>
</mask>
<path d="M0.46875 11.7656H99.2031V7.76562H0.46875V11.7656Z" fill="#0D6CAC" mask="url(#path-1-inside-1_1_23)"/>
<path d="M129.694 4.54688L120.475 1.46094C120.084 1.34375 119.694 1.30469 119.303 1.30469C118.873 1.30469 118.483 1.34375 118.092 1.46094L108.873 4.54688C108.405 4.70312 108.053 5.17188 108.053 5.71875V7.63281L118.405 4.54688C118.991 4.35156 119.577 4.35156 120.202 4.54688L130.553 7.63281V5.71875C130.553 5.21094 130.202 4.70312 129.694 4.54688ZM118.756 5.75781L108.053 8.96094V17.8672C108.053 18.4531 108.444 18.9609 109.03 19.0781L118.483 21.1875C118.717 21.2656 118.991 21.3047 119.303 21.3047C119.577 21.3047 119.85 21.2656 120.084 21.1875L129.538 19.0781C130.123 18.9609 130.553 18.4531 130.553 17.8672V8.96094L119.811 5.75781C119.459 5.64062 119.108 5.64062 118.756 5.75781ZM113.053 10.2891C113.053 10.4062 112.936 10.5234 112.819 10.5625L109.694 11.4219C109.498 11.5 109.303 11.3438 109.303 11.1094V10.4844C109.303 10.3281 109.381 10.2109 109.498 10.1719L112.623 9.3125C112.819 9.27344 113.053 9.42969 113.053 9.625V10.2891ZM118.678 8.72656C118.678 8.88281 118.561 9 118.444 9.03906L114.694 10.0547C114.498 10.1328 114.303 9.97656 114.303 9.78125V9.11719C114.303 8.96094 114.381 8.84375 114.498 8.80469L118.248 7.78906C118.444 7.75 118.678 7.86719 118.678 8.10156V8.72656ZM125.553 9.625C125.553 9.42969 125.748 9.27344 125.944 9.3125L129.069 10.1719C129.186 10.2109 129.303 10.3281 129.303 10.4844V11.1094C129.303 11.3438 129.069 11.5 128.873 11.4219L125.748 10.5625C125.631 10.5234 125.553 10.4062 125.553 10.2891V9.625ZM119.928 8.10156C119.928 7.86719 120.123 7.75 120.319 7.78906L124.069 8.80469C124.186 8.84375 124.303 8.96094 124.303 9.11719V9.78125C124.303 9.97656 124.069 10.1328 123.873 10.0547L120.123 9.03906C120.006 9 119.928 8.88281 119.928 8.72656V8.10156Z" fill="#0D6CAC"/>
<mask id="path-4-inside-2_1_23" fill="white">
<path d="M139.203 9.76562H237.938V11.7656H139.203V9.76562Z"/>
</mask>
<path d="M139.203 11.7656H237.938V7.76562H139.203V11.7656Z" fill="#0D6CAC" mask="url(#path-4-inside-2_1_23)"/>
</svg>
